<?xml version="1.0" encoding="UTF-8"?><svg id="Layer_2" xmlns="http://www.w3.org/2000/svg" viewBox="0 0 1296.67 283.84"><defs><style>.cls-1{fill:#fff;}</style></defs><g id="Layer_1-2"><path class="cls-1" d="M189.04,27.9c0-18.63,4.6-22.1,16.47-22.1,15.55,0,25.26-.67,42.37-.67,16.17,0,21.58.34,21.58,22.09,0,25.84.18,49.42.47,75.24-.11,15.69.58,38.87.26,54.43-.61,29.67-.52,41.49-4.46,61.3-5.2,26.2-25.98,47.89-50.87,57.31-12.99,5.35-26.75,8.34-79.73,8.34-92.13-2.51-119.79-30.38-129.16-62.05C-1.4,194.59.1,164.12.17,136.01.24,106.54,1.45,56.97,2.19,14.59c.19-11.02,14.41-8.8,42.04-8.8,26.2,0,29.99-2.45,35.96,6.27,1.79,2.94,1.73,5.38,1.9,8.16.1,53.21-.07,171.17-.02,195.53-.32,23.09,21.3,33.27,51.19,33.27s55.18-6.78,55.18-31.81c0-27.21.6-189.3.6-189.3Z"/><path class="cls-1" d="M395.05,214.1c-.26,1.54-.33,3.09-.19,4.63.12,1.54.19,3.09.19,4.63.25,2.83,1.28,5.08,3.08,6.75,1.8,1.68,3.99,2.52,6.56,2.52,1.28.26,2.63.33,4.05.19,1.41-.13,2.76-.19,4.05-.19,9.77,0,102.51-.21,111.51.3,4.63.27,7.59,1.04,8.88,2.32,1.28,1.29,2.05,4.12,2.31,8.49.25,4.12.32,10.56.19,14.54-.13,4-.19,7.91-.19,11.77,0,2.06-.65,3.99-1.93,5.78-1.54,1.55-3.35,2.19-5.4,1.93-1.29.26-2.45.33-3.47.19-1.03-.12-2.06-.19-3.08-.19h-179.43c-4.12,0-7.33-.06-9.64-.2-2.32-.13-4.05-.77-5.21-1.93-1.16-1.16-1.8-2.89-1.93-5.21-.13-2.32-.19-5.53-.19-9.64v-73.71c-.52-27.26-.84-54.4-.96-81.42-.13-27.01-.45-54.15-.97-81.42v-7.71c.51-4.12,1.6-7.08,3.28-8.88,1.67-1.8,4.44-2.83,8.3-3.08h50.55c3.86.26,6.37.96,7.53,2.12s1.86,3.66,2.12,7.52c.25,4.38.32,8.63.19,12.74-.13,4.12-.19,8.36-.19,12.73v174.41Z"/><path class="cls-1" d="M652.49,18.86c0-8.77-1-13.25-9.28-13.25-13.19,0-38.53.49-52.85.52-7.49.01-9.01,6.17-9.26,10.03v5.4c.25,6.64,2.79,241.41,2.79,243.77,0,8.77,1,13.25,9.28,13.25,13.19,0,38.53-.49,52.85-.52,7.49-.01,9.01-6.17,9.26-10.03v-5.4c-.25-6.64-2.79-241.41-2.79-243.77Z"/><path class="cls-1" d="M705.78,25.03c-1.93-5.14-10.12-20.45.02-20.45,2.47,0,50.97.33,50.97.33,6.43,0,18.47,1.15,21.17,3.33,2.7,2.19,5.07,6.37,7.14,12.54,1.28,4.12,66.5,172.36,67.53,174.41h0c.43,1.19,2.06,1.32,2.68.23l.79-1.38c1.28-3.34,69.35-176.46,72.17-183.54,2.07-5.2,6.4-4.91,13.6-5.11,4.65-.13,22.55-.05,28.3-.07,9.01-.04,11.23.25,6.32,13.16-1.03,3.08-91.78,247.8-93.19,251-1.42,3.23-3.28,5.54-5.6,6.95-2.31,1.42-5.28,2.25-8.87,2.51-3.61.26-8.75.39-15.44.39h-34.78c-4.84-.23-18.35,0-23.49-11.19-3.6-10.29-87.4-237.95-89.33-243.09Z"/><path class="cls-1" d="M1004.94,139.39c0-90.12,65.49-139.39,145.41-139.39,84.72,0,146.31,40.68,146.31,139.39,0,88.13-37.26,139.39-146.48,139.39s-145.25-51.26-145.25-139.39ZM1218.99,130.12c.03-9.75-.45-19.48-.98-29.22-.73-12.28-.92-25.28-5.05-36.61-7.37-21.74-31.25-32.64-53.1-33.26-28.16-1.76-62.14,9.68-66.69,41.12-1.33,7.35-1.56,15.07-1.97,22.69-1.05,22.92-2.13,46.13-.99,69.04,1.03,17.3,1.62,36.07,11.31,50.76,19.06,28.35,60.97,33.73,88.54,14.87,19.37-12.46,25.66-32.94,26.87-54.83.98-14.79,1.99-29.83,2.05-44.36v-.2Z"/></g></svg>